<?xml version="1.0"?>
<!DOCTYPE svg PUBLIC "-//W3C//DTD SVG 20010904//EN" "http://www.w3.org/TR/2001/REC-SVG-20010904/DTD/svg10.dtd">
<svg version="1.0" xmlns="http://www.w3.org/2000/svg" width="480px" height="600px" viewBox="0 0 480 600">
	<path d="M60 570 l0 -30 -30 0 -30 0 0 -240 0 -240 30 0 30 0 0 -30 0 -30 180 0 180 0 0 30 0 30 30 0 30 0 0 240 0 240 -30 0 -30 0 0 30 0 30 -180 0 -180 0 0 -30z m240 -180 l0 -30 30 0 30 0 0 -30 0 -30 -120 0 -120 0 0 30 0 30 30 0 30 0 0 30 0 30 60 0 60 0 0 -30z m-120 -240 l0 -30 -30 0 -30 0 0 30 0 30 30 0 30 0 0 -30z m180 0 l0 -30 -30 0 -30 0 0 30 0 30 30 0 30 0 0 -30z" fill="black" stroke="none" />
</svg>
